<svg viewBox="0 0 61.182 11.365" xml:space="preserve" xmlns="http://www.w3.org/2000/svg">
  <path d="M92.9 120.764h-3.367a7.447 7.447 0 0 1-2.993-.632 7.447 7.447 0 0 1-2.994.632h-3.367a.707.707 0 1 1 0-1.413h3.367c.925 0 1.85-.219 2.677-.632.2-.1.434-.1.633 0a6.014 6.014 0 0 0 2.677.632H92.9a.707.707 0 1 1 0 1.413z" transform="translate(-32.424 -114.346)"/>
  <path d="M86.54 125.71a5.66 5.66 0 0 1-5.654-5.652 5.66 5.66 0 0 1 5.654-5.654 5.66 5.66 0 0 1 5.653 5.654 5.66 5.66 0 0 1-5.653 5.653zm0-9.893a4.245 4.245 0 0 0-4.24 4.24 4.245 4.245 0 0 0 4.24 4.24 4.245 4.245 0 0 0 4.24-4.24 4.245 4.245 0 0 0-4.24-4.24z" transform="translate(-32.424 -114.346)"/>
  <path d="M86.54 120.058a1.769 1.769 0 0 1-1.767-1.767c0-.974.792-1.767 1.767-1.767.974 0 1.766.793 1.766 1.767 0 .974-.792 1.767-1.766 1.767zm0-2.12a.354.354 0 1 0 0 .707.354.354 0 0 0 0-.708zM65.155 123.578a.706.706 0 0 1-.686-.536l-.863-3.451-1.323 3.528a.708.708 0 0 1-1.347-.077l-1.01-4.04-.885 1.417a.707.707 0 0 1-.6.332h-2.12a.707.707 0 1 1 0-1.413h1.729l1.559-2.495a.706.706 0 0 1 1.285.204l.863 3.45 1.323-3.528a.706.706 0 0 1 1.347.077l1.01 4.04.886-1.416a.707.707 0 0 1 .599-.332h2.12a.707.707 0 1 1 0 1.413h-1.729l-1.559 2.495a.707.707 0 0 1-.599.332z" transform="translate(-32.424 -114.346)"/>
  <path d="M34.544 120.706h-1.413a.706.706 0 1 1 0-1.414h1.413a.706.706 0 1 1 0 1.414z" transform="translate(-32.424 -114.346)"/>
  <path d="M39.49 125.652a5.66 5.66 0 0 1-5.652-5.653 5.66 5.66 0 0 1 5.653-5.653 5.66 5.66 0 0 1 5.653 5.653 5.66 5.66 0 0 1-5.653 5.653zm0-9.893a4.244 4.244 0 0 0-4.24 4.24 4.244 4.244 0 0 0 4.24 4.24 4.244 4.244 0 0 0 4.24-4.24 4.244 4.244 0 0 0-4.24-4.24z" transform="translate(-32.424 -114.346)"/>
  <path d="M37.724 121.766a.706.706 0 0 1-.707-.707v-2.12a.706.706 0 1 1 1.414 0v2.12c0 .39-.317.707-.707.707z" transform="translate(-32.424 -114.346)"/>
  <path d="M38.784 120.706h-2.12a.706.706 0 1 1 0-1.414h2.12a.706.706 0 1 1 0 1.414zM42.317 120.706h-1.413a.706.706 0 1 1 0-1.414h1.413a.706.706 0 1 1 0 1.414z" transform="translate(-32.424 -114.346)"/>
  <path d="M44.998 119.35h11.758v1.389H44.998z" transform="translate(-32.424 -114.346)"/>
  <path d="M68.373 119.346h11.851v1.4H68.373z" transform="translate(-32.424 -114.346)"/>
</svg>