<svg xmlns="http://www.w3.org/2000/svg" width="256" height="256" viewBox="0 0 100 100">
  <rect width="100" height="100" rx="20" fill="#000"></rect>
  <path d="M36.51 41.24Q41.62 41.24 44.11 44.23Q46.61 47.22 46.61 53.25L46.61 53.25L46.61 66.65Q46.61 68.56 45.42 69.66Q44.23 70.76 42.20 70.76L42.20 70.76Q40.17 70.76 39.01 69.66Q37.85 68.56 37.85 66.65L37.85 66.65L37.85 53.65Q37.85 50.75 36.78 49.42Q35.70 48.09 33.44 48.09L33.44 48.09Q30.71 48.09 29.06 49.83Q27.41 51.57 27.41 54.47L27.41 54.47L27.41 66.65Q27.41 68.56 26.25 69.66Q25.09 70.76 23.06 70.76L23.06 70.76Q21.03 70.76 19.84 69.66Q18.65 68.56 18.65 66.65L18.65 66.65L18.65 45.36Q18.65 43.56 19.90 42.46Q21.14 41.36 23.12 41.36L23.12 41.36Q24.91 41.36 26.05 42.43Q27.18 43.50 27.18 45.19L27.18 45.19L27.18 46.00Q28.68 43.68 31.09 42.46Q33.50 41.24 36.51 41.24L36.51 41.24ZM80.02 63.63Q81.35 64.91 81.35 66.53L81.35 66.53Q81.35 68.15 80.16 69.43Q78.97 70.71 77.41 70.71L77.41 70.71Q75.90 70.71 74.62 69.49L74.62 69.49L61.92 57.71L61.92 66.59Q61.92 68.62 60.67 69.66Q59.42 70.71 57.57 70.71L57.57 70.71Q55.66 70.71 54.41 69.66Q53.16 68.62 53.16 66.59L53.16 66.59L53.16 33.35Q53.16 31.32 54.41 30.28Q55.66 29.24 57.57 29.24L57.57 29.24Q59.42 29.24 60.67 30.28Q61.92 31.32 61.92 33.35L61.92 33.35L61.92 54.12L73.52 42.69Q74.80 41.42 76.36 41.42L76.36 41.42Q77.98 41.42 79.20 42.60Q80.42 43.79 80.42 45.42L80.42 45.42Q80.42 46.93 79.09 48.26L79.09 48.26L71.37 55.63L80.02 63.63Z" fill="#fff"></path>
</svg>